<?xml version="1.0" encoding="UTF-8" standalone="no"?>
<!-- Created with Inkscape (http://www.inkscape.org/) -->

<svg
   xmlns:dc="http://purl.org/dc/elements/1.1/"
   xmlns:cc="http://creativecommons.org/ns#"
   xmlns:rdf="http://www.w3.org/1999/02/22-rdf-syntax-ns#"
   xmlns:svg="http://www.w3.org/2000/svg"
   xmlns="http://www.w3.org/2000/svg"
   xmlns:sodipodi="http://sodipodi.sourceforge.net/DTD/sodipodi-0.dtd"
   xmlns:inkscape="http://www.inkscape.org/namespaces/inkscape"
   width="980"
   height="400"
   id="svg3008"
   version="1.1"
   inkscape:version="0.48.4 r9939"
   sodipodi:docname="mikomos_banner_parade_980x400_notagline.svg"
   inkscape:export-filename="C:\Users\Eli\Documents\node\mikomos\public\ember\img\mikomos_banner_980x400_notagline.png"
   inkscape:export-xdpi="90"
   inkscape:export-ydpi="90">
  <defs
     id="defs3010" />
  <sodipodi:namedview
     id="base"
     pagecolor="#ffffff"
     bordercolor="#666666"
     borderopacity="1.0"
     inkscape:pageopacity="0.0"
     inkscape:pageshadow="2"
     inkscape:zoom="0.75"
     inkscape:cx="363.7492"
     inkscape:cy="231.37238"
     inkscape:document-units="px"
     inkscape:current-layer="layer1"
     showgrid="false"
     inkscape:window-width="1366"
     inkscape:window-height="706"
     inkscape:window-x="-8"
     inkscape:window-y="-8"
     inkscape:window-maximized="1" />
  <metadata
     id="metadata3013">
    <rdf:RDF>
      <cc:Work
         rdf:about="">
        <dc:format>image/svg+xml</dc:format>
        <dc:type
           rdf:resource="http://purl.org/dc/dcmitype/StillImage" />
        <dc:title></dc:title>
      </cc:Work>
    </rdf:RDF>
  </metadata>
  <g
     id="layer1"
     inkscape:label="Layer 1"
     inkscape:groupmode="layer"
     transform="translate(0,310)">
    <g
       id="g3144"
       transform="matrix(1.3214007,0,0,1.3214007,-1.9762978,70.043875)">
      <text
         xml:space="preserve"
         style="font-size:161.07301331px;font-style:normal;font-weight:normal;line-height:125%;letter-spacing:0px;word-spacing:0px;fill:#000000;fill-opacity:1;stroke:none;font-family:Sans"
         x="168.49022"
         y="-123.56606"
         id="text3045"
         sodipodi:linespacing="125%"><tspan
           sodipodi:role="line"
           id="tspan3047"
           x="168.49022"
           y="-123.56606" /></text>
      <path
         inkscape:connector-curvature="0"
         id="placemark"
         d="m 338.85384,-200.86783 c -3.4528,0 -6.90887,0.36241 -10.21565,0.88087 -3.39185,0.53254 -6.66772,1.25234 -9.86341,2.28975 -3.25624,1.05805 -6.32755,2.33908 -9.33503,3.87481 -3.03849,1.55134 -6.06863,3.29193 -8.80662,5.2837 -2.75032,2.00184 -5.35024,4.2926 -7.74983,6.69309 -2.39847,2.39948 -4.51638,5.00131 -6.51691,7.75013 -1.99192,2.73673 -3.73332,5.59225 -5.28395,8.62999 -1.53437,3.00552 -2.81837,6.25768 -3.87491,9.51136 -1.03827,3.19679 -1.93253,6.46909 -2.46588,9.8632 -0.51906,3.30653 -0.70454,6.58739 -0.70454,10.03989 0,3.4535 0.18473,6.90801 0.70454,10.21555 0.5331,3.39109 1.42847,6.66842 2.46588,9.86371 1.05699,3.25669 2.33943,6.50483 3.87491,9.51085 1.55123,3.03875 3.29107,5.89175 5.28395,8.631001 2.00194,2.749818 4.29295,5.349134 6.69304,7.749625 2.39888,2.397974 4.82459,4.516084 7.5737,6.51641 2.73718,1.991768 5.76918,3.910551 8.80662,5.460375 3.00562,1.53422 6.08101,2.818274 9.33503,3.874813 l 20.07906,61.646668 20.07911,-61.646668 c 3.25614,-1.056539 6.3274,-2.338076 9.33499,-3.874813 3.03839,-1.550831 5.8925,-3.467097 8.63049,-5.460375 2.75043,-2.001332 5.35014,-4.116422 7.74983,-6.51641 2.39838,-2.398478 4.69251,-5.00031 6.69304,-7.749625 1.99202,-2.736731 3.73332,-5.593761 5.284,-8.631001 1.53437,-3.00552 2.81842,-6.25718 3.87491,-9.51085 1.03822,-3.19831 1.93252,-6.4696 2.46583,-9.86371 0.51915,-3.30552 0.70454,-6.76406 0.70454,-10.21555 0,-3.45301 -0.18473,-6.73286 -0.70454,-10.03989 -0.53306,-3.39159 -1.42842,-6.66691 -2.46583,-9.8632 -1.05704,-3.25519 -2.33949,-6.50433 -3.87491,-9.51136 -1.55124,-3.03875 -3.29108,-5.89175 -5.284,-8.62999 -2.00194,-2.74982 -4.29295,-5.35115 -6.69304,-7.75013 -2.39878,-2.39798 -5.00081,-4.69327 -7.74983,-6.69309 -2.73718,-1.99177 -5.59291,-3.73287 -8.63049,-5.2837 -3.00552,-1.53472 -6.08101,-2.81777 -9.33499,-3.87481 -3.19775,-1.03842 -6.64542,-1.75469 -10.03958,-2.28975 -3.30592,-0.51393 -6.58768,-0.88087 -10.03953,-0.88087 z m -1.05679,34.16962 c 7.71142,0 14.12772,2.58372 19.02232,7.75013 4.89441,5.16491 7.22136,12.38098 7.22141,21.48765 -5e-5,7.38016 -1.00484,13.20698 -3.17037,17.43766 -2.16558,4.22968 -5.3738,7.52261 -9.51116,9.8627 -4.13751,2.34009 -8.66769,3.52347 -13.5622,3.52347 -7.85241,0 -14.18061,-2.60233 -19.02227,-7.75012 -4.84175,-5.14729 -7.22145,-12.50934 -7.22145,-22.19234 0,-10.61924 2.85567,-18.49068 8.63049,-23.60223 4.82404,-4.2483 10.67637,-6.51692 17.61323,-6.51692 z"
         style="fill:#ff4200;fill-opacity:0.76190479;stroke:none" />
      <g
         transform="matrix(5.0335316,0,0,5.0335316,-22.154768,-5302.9169)"
         id="g3818">
        <path
           inkscape:connector-curvature="0"
           id="path3781"
           style="font-size:36px;font-style:normal;font-weight:normal;line-height:125%;letter-spacing:0px;word-spacing:0px;fill:#2a5a9b;fill-opacity:1;stroke:#2a5a9b;stroke-width:1.5;stroke-linecap:round;stroke-linejoin:round;stroke-miterlimit:4;stroke-opacity:1;stroke-dasharray:none;font-family:Sans"
           d="m 6.373047,1035.8622 0,-18.668 2.830078,0 0,2.6192 c 0.585932,-0.9141 1.365228,-1.6494 2.337891,-2.2061 0.972647,-0.5566 2.080068,-0.8349 3.322265,-0.835 1.382801,10e-5 2.516588,0.2872 3.401367,0.8614 0.884751,0.5742 1.508774,1.3769 1.872071,2.4082 1.476545,-2.1797 3.398418,-3.2695 5.765625,-3.2696 1.851538,10e-5 3.275365,0.5128 4.271484,1.5381 0.996067,1.0254 1.494113,2.6045 1.494141,4.7373 l 0,12.8145 -3.146485,0 0,-11.7598 c -2.4e-5,-1.2656 -0.102563,-2.1767 -0.307617,-2.7334 -0.205102,-0.5566 -0.577172,-1.0048 -1.116211,-1.3447 -0.539085,-0.3398 -1.171897,-0.5098 -1.898437,-0.5098 -1.31252,0 -2.402363,0.4366 -3.269532,1.3096 -0.867204,0.8731 -1.300797,2.2705 -1.300781,4.1924 l 0,10.8457 -3.164062,0 0,-12.1289 c -1.4e-5,-1.4063 -0.257826,-2.4609 -0.773438,-3.1641 -0.515637,-0.7031 -1.359386,-1.0547 -2.53125,-1.0547 -0.890634,0 -1.713875,0.2344 -2.469726,0.7032 -0.755867,0.4687 -1.303718,1.1543 -1.643555,2.0566 -0.339849,0.9023 -0.509771,2.2031 -0.509766,3.9023 l 0,9.6856 z" />
        <path
           inkscape:connector-curvature="0"
           id="path3783"
           style="font-size:36px;font-style:normal;font-weight:normal;line-height:125%;letter-spacing:0px;word-spacing:0px;fill:#2a5a9b;fill-opacity:1;stroke:#2a5a9b;stroke-width:1.5;stroke-linecap:round;stroke-linejoin:round;stroke-miterlimit:4;stroke-opacity:1;stroke-dasharray:none;font-family:Sans"
           d="m 36.414062,1013.7313 0,-3.6386 3.164063,0 0,3.6386 z m 0,22.1309 0,-18.668 3.164063,0 0,18.668 z" />
        <path
           inkscape:connector-curvature="0"
           id="path3785"
           style="font-size:36px;font-style:normal;font-weight:normal;line-height:125%;letter-spacing:0px;word-spacing:0px;fill:#2a5a9b;fill-opacity:1;stroke:#2a5a9b;stroke-width:1.5;stroke-linecap:round;stroke-linejoin:round;stroke-miterlimit:4;stroke-opacity:1;stroke-dasharray:none;font-family:Sans"
           d="m 44.429687,1035.8622 0,-25.7695 3.164063,0 0,14.6953 7.48828,-7.5938 4.0957,0 -7.13671,6.9258 7.85742,11.7422 -3.90235,0 -6.169918,-9.5449 -2.232422,2.1445 0,7.4004 z" />
      </g>
      <g
         transform="matrix(5.0335316,0,0,5.0335316,-2.0206416,-5302.9169)"
         id="g3823">
        <path
           inkscape:connector-curvature="0"
           id="path3789"
           style="font-size:36px;font-style:normal;font-weight:normal;line-height:125%;letter-spacing:0px;word-spacing:0px;fill:#2a5a9b;fill-opacity:1;stroke:#2a5a9b;stroke-width:1.5;stroke-linecap:round;stroke-linejoin:round;stroke-miterlimit:4;stroke-opacity:1;stroke-dasharray:none;font-family:Sans"
           d="m 82.45117,1035.8622 0,-18.668 2.83008,0 0,2.6192 c 0.58593,-0.9141 1.36523,-1.6494 2.33789,-2.2061 0.97265,-0.5566 2.08007,-0.8349 3.32227,-0.835 1.3828,10e-5 2.51658,0.2872 3.40136,0.8614 0.88475,0.5742 1.50878,1.3769 1.87207,2.4082 1.47655,-2.1797 3.39842,-3.2695 5.76563,-3.2696 1.85154,10e-5 3.27536,0.5128 4.27148,1.5381 0.99607,1.0254 1.49412,2.6045 1.49414,4.7373 l 0,12.8145 -3.14648,0 0,-11.7598 c -3e-5,-1.2656 -0.10256,-2.1767 -0.30762,-2.7334 -0.2051,-0.5566 -0.57717,-1.0048 -1.11621,-1.3447 -0.53908,-0.3398 -1.1719,-0.5098 -1.89844,-0.5098 -1.31252,0 -2.40236,0.4366 -3.26953,1.3096 -0.8672,0.8731 -1.3008,2.2705 -1.30078,4.1924 l 0,10.8457 -3.16406,0 0,-12.1289 c -1e-5,-1.4063 -0.25783,-2.4609 -0.77344,-3.1641 -0.51564,-0.7031 -1.35939,-1.0547 -2.53125,-1.0547 -0.89063,0 -1.71387,0.2344 -2.46973,0.7032 -0.75586,0.4687 -1.30371,1.1543 -1.64355,2.0566 -0.33985,0.9023 -0.50977,2.2031 -0.50977,3.9023 l 0,9.6856 z" />
        <path
           inkscape:connector-curvature="0"
           id="path3791"
           style="font-size:36px;font-style:normal;font-weight:normal;line-height:125%;letter-spacing:0px;word-spacing:0px;fill:#2a5a9b;fill-opacity:1;stroke:#2a5a9b;stroke-width:1.5;stroke-linecap:round;stroke-linejoin:round;stroke-miterlimit:4;stroke-opacity:1;stroke-dasharray:none;font-family:Sans"
           d="m 111.29687,1026.5282 c 0,-3.457 0.96094,-6.0176 2.88282,-7.6816 1.60546,-1.3828 3.56249,-2.0742 5.87109,-2.0743 2.56639,10e-5 4.66405,0.8409 6.29297,2.5225 1.62889,1.6817 2.44334,4.0049 2.44336,6.9697 -2e-5,2.4024 -0.36037,4.292 -1.08106,5.669 -0.72072,1.3769 -1.76954,2.4463 -3.14648,3.208 -1.37697,0.7617 -2.87989,1.1426 -4.50879,1.1426 -2.61329,0 -4.72559,-0.8379 -6.33691,-2.5137 -1.61133,-1.6758 -2.417,-4.0899 -2.417,-7.2422 z m 3.25196,0 c -10e-6,2.3906 0.52148,4.1807 1.56445,5.3701 1.04296,1.1895 2.35546,1.7842 3.9375,1.7842 1.5703,0 2.87694,-0.5977 3.91992,-1.793 1.04296,-1.1953 1.56444,-3.0175 1.56446,-5.4668 -2e-5,-2.3086 -0.52443,-4.0576 -1.57325,-5.247 -1.04884,-1.1895 -2.35255,-1.7842 -3.91113,-1.7842 -1.58204,0 -2.89454,0.5918 -3.9375,1.7754 -1.04297,1.1836 -1.56446,2.9707 -1.56445,5.3613 z" />
        <path
           inkscape:connector-curvature="0"
           id="path3793"
           style="font-size:36px;font-style:normal;font-weight:normal;line-height:125%;letter-spacing:0px;word-spacing:0px;fill:#2a5a9b;fill-opacity:1;stroke:#2a5a9b;stroke-width:1.5;stroke-linecap:round;stroke-linejoin:round;stroke-miterlimit:4;stroke-opacity:1;stroke-dasharray:none;font-family:Sans"
           d="m 131.24805,1030.2899 3.1289,-0.4922 c 0.17578,1.2539 0.66504,2.2149 1.46778,2.8828 0.80272,0.668 1.92479,1.002 3.36621,1.002 1.45311,0 2.53124,-0.2959 3.23437,-0.8877 0.70311,-0.5918 1.05468,-1.2861 1.05469,-2.083 -1e-5,-0.7148 -0.31056,-1.2773 -0.93164,-1.6875 -0.43361,-0.2813 -1.51173,-0.6387 -3.23438,-1.0723 -2.32031,-0.5859 -3.92871,-1.0927 -4.82519,-1.5205 -0.89649,-0.4277 -1.57618,-1.0195 -2.03906,-1.7754 -0.4629,-0.7558 -0.69434,-1.5908 -0.69434,-2.5049 0,-0.832 0.19043,-1.6025 0.57129,-2.3115 0.38086,-0.7089 0.89941,-1.2978 1.55566,-1.7666 0.49219,-0.3632 1.16308,-0.6709 2.0127,-0.9228 0.8496,-0.252 1.76073,-0.3779 2.7334,-0.378 1.46483,10e-5 2.75096,0.211 3.8584,0.6329 1.1074,0.4218 1.92479,0.9931 2.45214,1.7138 0.52733,0.7207 0.89061,1.6846 1.08985,2.8916 l -3.09375,0.4219 c -0.14064,-0.9609 -0.54787,-1.7109 -1.22168,-2.25 -0.67384,-0.5391 -1.62599,-0.8086 -2.85645,-0.8086 -1.45313,0 -2.49024,0.2403 -3.11133,0.7207 -0.62109,0.4805 -0.93164,1.043 -0.93164,1.6875 0,0.4102 0.12891,0.7793 0.38672,1.1074 0.25781,0.3399 0.66211,0.6211 1.21289,0.8438 0.3164,0.1172 1.24804,0.3867 2.79493,0.8086 2.23827,0.5976 3.79979,1.0869 4.68457,1.4677 0.88475,0.3809 1.57908,0.9346 2.083,1.6612 0.50389,0.7265 0.75585,1.6289 0.75586,2.707 -1e-5,1.0547 -0.30763,2.0479 -0.92285,2.9795 -0.61525,0.9316 -1.50294,1.6523 -2.66308,2.1621 -1.16017,0.5098 -2.47267,0.7647 -3.9375,0.7647 -2.42579,0 -4.27442,-0.5039 -5.5459,-1.5118 -1.27149,-1.0078 -2.08301,-2.5019 -2.43457,-4.4824 z" />
      </g>
    </g>
  </g>
</svg>
